<svg width="400" height="400" viewBox="0 0 400 400" xmlns="http://www.w3.org/2000/svg">
<defs>
    <filter id="shadow" x="-20%" y="-20%" width="140%" height="140%">
        <feDropShadow dx="2" dy="4" stdDeviation="3" flood-opacity="0.3"/>
    </filter>
    <filter id="glow" x="-50%" y="-50%" width="200%" height="200%">
        <feGaussianBlur stdDeviation="8" result="blur"/>
        <feMerge><feMergeNode in="blur"/><feMergeNode in="SourceGraphic"/></feMerge>
    </filter>
    <linearGradient id="rainbow-body" x1="0%" y1="0%" x2="100%" y2="100%">
        <stop offset="0%" stop-color="#FF6B6B"/><stop offset="25%" stop-color="#FFE66D"/>
        <stop offset="50%" stop-color="#4ECDC4"/><stop offset="75%" stop-color="#45B7D1"/>
        <stop offset="100%" stop-color="#DDA0DD"/>
    </linearGradient>
    <radialGradient id="galaxy-body" cx="30%" cy="30%">
        <stop offset="0%" stop-color="#E6E6FA"/><stop offset="50%" stop-color="#9370DB"/>
        <stop offset="100%" stop-color="#1A0033"/>
    </radialGradient>
    <linearGradient id="holo-body" x1="0%" y1="0%" x2="100%" y2="100%">
        <stop offset="0%" stop-color="#FF00FF"/><stop offset="50%" stop-color="#00FFFF"/>
        <stop offset="100%" stop-color="#FFFF00"/>
    </linearGradient>
    <linearGradient id="sky-gradient" x1="0%" y1="0%" x2="0%" y2="100%">
        <stop offset="0%" stop-color="#87CEEB"/><stop offset="100%" stop-color="#E0F4FF"/>
    </linearGradient>
    <linearGradient id="grass-gradient" x1="0%" y1="0%" x2="0%" y2="100%">
        <stop offset="0%" stop-color="#90EE90"/><stop offset="100%" stop-color="#228B22"/>
    </linearGradient>
    <linearGradient id="sunset-gradient" x1="0%" y1="0%" x2="0%" y2="100%">
        <stop offset="0%" stop-color="#FF6B6B"/><stop offset="50%" stop-color="#FFE66D"/>
        <stop offset="100%" stop-color="#4ECDC4"/>
    </linearGradient>
    <linearGradient id="aurora-gradient" x1="0%" y1="0%" x2="100%" y2="100%">
        <stop offset="0%" stop-color="#0D1B2A"/><stop offset="30%" stop-color="#00FF7F"/>
        <stop offset="70%" stop-color="#FF00FF"/><stop offset="100%" stop-color="#0D1B2A"/>
    </linearGradient>
    <radialGradient id="multiverse-gradient" cx="50%" cy="50%">
        <stop offset="0%" stop-color="#FFD700"/><stop offset="40%" stop-color="#FF00FF"/>
        <stop offset="70%" stop-color="#00FFFF"/><stop offset="100%" stop-color="#000"/>
    </radialGradient>
    <linearGradient id="rift-gradient" x1="0%" y1="0%" x2="100%" y2="100%">
        <stop offset="0%" stop-color="#000"/><stop offset="30%" stop-color="#9400D3"/>
        <stop offset="50%" stop-color="#00FFFF"/><stop offset="70%" stop-color="#9400D3"/>
        <stop offset="100%" stop-color="#000"/>
    </linearGradient>
    <linearGradient id="heaven-gradient" x1="0%" y1="0%" x2="0%" y2="100%">
        <stop offset="0%" stop-color="#FFF"/><stop offset="50%" stop-color="#FFD700" stop-opacity="0.3"/>
        <stop offset="100%" stop-color="#F0F8FF"/>
    </linearGradient>
    <clipPath id="head-clip"><ellipse cx="200" cy="200" rx="110" ry="115"/></clipPath>
</defs>
<rect width="400" height="400" fill="url(#multiverse-gradient)"/>
<circle cx="200" cy="200" r="180" fill="url(#multiverse-gradient)" opacity="0.15"/>
<ellipse cx="130" cy="160" rx="30" ry="60" fill="#FFD700" transform="rotate(20 130 160)" filter="url(#shadow)"/>
<ellipse cx="270" cy="160" rx="30" ry="60" fill="#FFD700" transform="rotate(-20 270 160)" filter="url(#shadow)"/>
<rect x="120" y="120" width="160" height="150" rx="40" fill="#FFD700" filter="url(#shadow)"/>
<ellipse cx="200" cy="220" rx="50" ry="35" fill="#FFEC8B" opacity="0.6"/>
<circle cx="165" cy="180" r="15" fill="#FFF"/>
<circle cx="235" cy="180" r="15" fill="#FFF"/>
<circle cx="165" cy="180" r="8" fill="#000"/>
<circle cx="235" cy="180" r="8" fill="#000"/>
<ellipse cx="200" cy="210" rx="20" ry="15" fill="#000"/>
<ellipse cx="195" cy="205" rx="5" ry="3" fill="#FFF" opacity="0.5"/>
<path d="M185 230 Q200 245 215 230" stroke="#000" stroke-width="3" fill="none"/>
<polygon points="155,70 170,35 190,60 210,35 230,60 245,35 245,85 155,85" fill="#FFD700" stroke="#B8860B" stroke-width="3"/><circle cx="200" cy="45" r="8" fill="#E74C3C"/><circle cx="175" cy="55" r="5" fill="#3498DB"/><circle cx="225" cy="55" r="5" fill="#2ECC71"/>
<circle cx="200" cy="200" r="145" fill="none" stroke="#FFD700" stroke-width="4" opacity="0.4" filter="url(#glow)"/>
<g transform="translate(325, 15)">
            <rect width="65" height="22" rx="4" fill="#4ECDC4" opacity="0.9"/>
            <text x="32" y="15" font-size="8" fill="#FFF" text-anchor="middle" font-family="sans-serif" font-weight="bold">UNCOMMON</text>
        </g>
        <g transform="translate(10, 15)">
            <rect width="45" height="22" rx="4" fill="#333" opacity="0.8"/>
            <text x="22" y="15" font-size="9" fill="#FFF" text-anchor="middle" font-family="sans-serif">Gen 2</text>
        </g>
</svg>